<svg viewBox="0 0 80 80">
    <circle cx="40" cy="40" r="18" />
    <path d="M43.0957 8.45899C53.6702 14.1338 59.0831 22.7307 56.9307 30.4327C54.8274 37.9597 45.5648 41.271 39.4213 36.6922C33.4479 32.2405 34.6681 24.6469 41.4597 24.0067C42.0722 23.9489 42.0567 23.9679 41.7581 23.6406C39.7094 21.3954 36.7396 19.7992 33.6583 19.2873C28.1126 18.366 21.2312 20.7568 16.8527 25.1257C15.8789 26.0974 15.8942 26.1001 15.9829 24.9756C16.2292 21.8549 18.1326 17.9425 21.1729 14.3073C21.3578 14.0862 21.5278 13.8739 21.5509 13.8358C21.5739 13.7975 21.2669 14.0114 20.8688 14.311C8.83482 23.3689 4.68923 39.2951 10.79 53.0326C10.9734 53.4459 11.1419 53.7843 11.1639 53.7843C11.1862 53.7843 11.1913 53.2697 11.1752 52.6408C10.8681 40.5733 16.303 31.2929 24.5481 29.8068C33.8408 28.1318 41.1425 38.9391 35.9144 46.6304C33.1442 50.7058 28.119 50.6876 25.438 46.5925C25.2286 46.2727 25.2436 46.26 25.0643 46.9115C23.4181 52.8924 25.4012 58.5636 30.739 63.1397C33.2213 65.2678 36.8733 67.1224 39.6352 67.6575C40.1705 67.7612 40.091 67.8672 39.1148 68.3511C36.6149 69.5906 32.6223 69.9285 28.0406 69.2886C27.5669 69.2225 27.1196 69.1533 27.0465 69.135C26.8713 69.0911 26.8754 69.1757 27.0521 69.2469C27.1283 69.2775 27.6096 69.4716 28.1218 69.6781C41.7887 75.189 57.5187 70.6401 66.1391 58.6842C66.5883 58.0614 66.6768 57.8777 66.4585 58.0204C59.6728 62.46 52.1798 64.2776 46.4367 62.8772C38.7031 60.9916 34.8108 53.8483 37.6407 46.7341C40.0856 40.5873 48.5355 37.9305 52.4528 42.077C54.133 43.8556 54.4368 46.4112 53.2849 49.0791C53.057 49.6066 53.0533 49.5921 53.3983 49.5116C57.9942 48.4361 61.6239 45.3205 63.5563 40.7927C65.381 36.5171 65.7001 30.8235 64.3517 26.6019C64.1276 25.9005 64.1863 25.8946 65.1409 26.5224C67.5747 28.1231 69.971 31.6158 71.7423 36.144C72.0336 36.8884 72.0464 36.8817 71.9356 36.0427C70.0356 21.6577 59.3294 10.6179 45.0333 8.30186C44.4471 8.20682 42.6111 8 42.3544 8C42.2898 8 42.6118 8.19942 43.0957 8.45899Z" />
</svg>
