<svg viewBox="0 0 70 10">
    <path d="M5.172 9.048L3.12 9H2.484C1.556 9 0.887998 9.032 0.479998 9.096C0.439998 9.048 0.419998 8.98 0.419998 8.892L0.431998 8.796C0.847998 8.7 1.12 8.552 1.248 8.352C1.352 8.192 1.42 7.992 1.452 7.752C1.548 7.024 1.596 6.032 1.596 4.776C1.596 2.144 1.524 0.803998 1.38 0.755999C1.228 0.715999 0.963998 0.695999 0.587998 0.695999C0.571998 0.639998 0.563998 0.575999 0.563998 0.503999C0.563998 0.431999 0.571998 0.371999 0.587998 0.323998L2.412 0.359999H3.792L6.624 0.275998C6.76 0.275998 6.828 0.319999 6.828 0.407999C6.828 0.415999 6.816 0.511999 6.792 0.695999C6.712 1.192 6.656 1.748 6.624 2.364C6.528 2.412 6.44 2.436 6.36 2.436C6.288 2.436 6.22 2.42 6.156 2.388C6.06 1.66 5.988 1.208 5.94 1.032C5.212 0.863998 4.556 0.779998 3.972 0.779998C3.396 0.779998 2.996 0.795998 2.772 0.827998C2.676 1.34 2.628 2.48 2.628 4.248C2.756 4.28 3.096 4.296 3.648 4.296C4.2 4.296 4.612 4.28 4.884 4.248C5.156 4.216 5.352 4.152 5.472 4.056C5.6 3.96 5.696 3.764 5.76 3.468C5.928 3.468 6.052 3.492 6.132 3.54C6.052 3.996 6.012 4.332 6.012 4.548L6.036 5.592C5.98 5.632 5.908 5.652 5.82 5.652L5.652 5.628L5.52 4.836C5.088 4.764 4.584 4.728 4.008 4.728C3.432 4.728 2.972 4.748 2.628 4.788V6.936C2.628 7.688 2.652 8.216 2.7 8.52C2.948 8.552 3.232 8.568 3.552 8.568C4.376 8.568 5.192 8.46 6 8.244C6.12 8.052 6.236 7.804 6.348 7.5C6.46 7.188 6.524 7.004 6.54 6.948C6.588 6.94 6.652 6.936 6.732 6.936C6.812 6.936 6.9 6.972 6.996 7.044C6.876 7.612 6.788 8.2 6.732 8.808C6.724 8.904 6.672 8.956 6.576 8.964C6.224 9.02 5.756 9.048 5.172 9.048Z" stroke="black" stroke-width="0.4" mask="url(#path-1-outside-1_110:17)"/>
    <path d="M14.681 9.036L12.713 9C11.849 9 11.133 9.032 10.565 9.096C10.525 9.048 10.505 8.98 10.505 8.892L10.517 8.796C11.069 8.708 11.433 8.596 11.609 8.46C11.785 8.316 11.901 8.084 11.957 7.764C12.069 7.172 12.125 6.18 12.125 4.788C12.125 3.396 12.109 2.424 12.077 1.872C12.045 1.32 12.005 0.975999 11.957 0.839999C11.757 0.799999 11.513 0.779998 11.225 0.779998C10.553 0.779998 10.029 0.867999 9.65297 1.044L9.12497 2.364C8.94097 2.364 8.80497 2.332 8.71697 2.268L8.90897 0.407999C8.90897 0.319999 8.97697 0.275998 9.11297 0.275998L11.225 0.359999H14.165L16.469 0.275998C16.613 0.275998 16.685 0.319999 16.685 0.407999C16.557 1.112 16.493 1.756 16.493 2.34C16.429 2.372 16.349 2.388 16.253 2.388C16.157 2.388 16.081 2.372 16.025 2.34C15.881 1.548 15.801 1.116 15.785 1.044C15.385 0.867999 14.837 0.779998 14.141 0.779998C13.829 0.779998 13.577 0.799999 13.385 0.839999C13.361 0.911999 13.329 1.244 13.289 1.836C13.257 2.428 13.241 3.188 13.241 4.116V6.264C13.241 7.152 13.305 7.924 13.433 8.58C13.801 8.636 14.217 8.664 14.681 8.664C14.705 8.728 14.717 8.8 14.717 8.88C14.717 8.952 14.705 9.004 14.681 9.036Z" stroke="black" stroke-width="0.4" mask="url(#path-1-outside-1_110:17)"/>
    <path d="M22.8364 9.048L20.7844 9H20.1484C19.2204 9 18.5524 9.032 18.1444 9.096C18.1044 9.048 18.0844 8.98 18.0844 8.892L18.0964 8.796C18.5124 8.7 18.7844 8.552 18.9124 8.352C19.0164 8.192 19.0844 7.992 19.1164 7.752C19.2124 7.024 19.2604 6.032 19.2604 4.776C19.2604 2.144 19.1884 0.803998 19.0444 0.755999C18.8924 0.715999 18.6284 0.695999 18.2524 0.695999C18.2364 0.639998 18.2284 0.575999 18.2284 0.503999C18.2284 0.431999 18.2364 0.371999 18.2524 0.323998L20.0764 0.359999H21.4564L24.2884 0.275998C24.4244 0.275998 24.4924 0.319999 24.4924 0.407999C24.4924 0.415999 24.4804 0.511999 24.4564 0.695999C24.3764 1.192 24.3204 1.748 24.2884 2.364C24.1924 2.412 24.1044 2.436 24.0244 2.436C23.9524 2.436 23.8844 2.42 23.8204 2.388C23.7244 1.66 23.6524 1.208 23.6044 1.032C22.8764 0.863998 22.2204 0.779998 21.6364 0.779998C21.0604 0.779998 20.6604 0.795998 20.4364 0.827998C20.3404 1.34 20.2924 2.48 20.2924 4.248C20.4204 4.28 20.7604 4.296 21.3124 4.296C21.8644 4.296 22.2764 4.28 22.5484 4.248C22.8204 4.216 23.0164 4.152 23.1364 4.056C23.2644 3.96 23.3604 3.764 23.4244 3.468C23.5924 3.468 23.7164 3.492 23.7964 3.54C23.7164 3.996 23.6764 4.332 23.6764 4.548L23.7004 5.592C23.6444 5.632 23.5724 5.652 23.4844 5.652L23.3164 5.628L23.1844 4.836C22.7524 4.764 22.2484 4.728 21.6724 4.728C21.0964 4.728 20.6364 4.748 20.2924 4.788V6.936C20.2924 7.688 20.3164 8.216 20.3644 8.52C20.6124 8.552 20.8964 8.568 21.2164 8.568C22.0404 8.568 22.8564 8.46 23.6644 8.244C23.7844 8.052 23.9004 7.804 24.0124 7.5C24.1244 7.188 24.1884 7.004 24.2044 6.948C24.2524 6.94 24.3164 6.936 24.3964 6.936C24.4764 6.936 24.5644 6.972 24.6604 7.044C24.5404 7.612 24.4524 8.2 24.3964 8.808C24.3884 8.904 24.3364 8.956 24.2404 8.964C23.8884 9.02 23.4204 9.048 22.8364 9.048Z" stroke="black" stroke-width="0.4" mask="url(#path-1-outside-1_110:17)"/>
    <path d="M26.8853 0.323998L28.7093 0.359999H30.1373C31.0413 0.359999 31.7533 0.555999 32.2733 0.947999C32.7933 1.332 33.0533 1.932 33.0533 2.748C33.0533 3.364 32.8893 3.872 32.5613 4.272C32.2413 4.664 31.8013 4.94 31.2413 5.1C31.5213 5.588 31.8693 6.144 32.2853 6.768C32.7093 7.392 33.0493 7.852 33.3053 8.148C33.5693 8.436 33.7893 8.596 33.9653 8.628C34.1413 8.652 34.4133 8.664 34.7813 8.664C34.7973 8.728 34.8053 8.792 34.8053 8.856C34.8053 8.912 34.7973 8.972 34.7813 9.036C34.1973 9.068 33.7413 9.108 33.4133 9.156C33.0933 9.212 32.9013 9.24 32.8373 9.24C32.7813 9.24 32.6613 9.14 32.4773 8.94C32.3013 8.732 32.0933 8.448 31.8533 8.088C31.6133 7.72 31.3933 7.38 31.1933 7.068C31.0013 6.756 30.7813 6.4 30.5333 6C30.2933 5.592 30.1453 5.344 30.0893 5.256C29.5773 5.256 29.1813 5.24 28.9013 5.208V6.996C28.9013 7.476 28.9293 8.004 28.9853 8.58C29.2333 8.636 29.5853 8.664 30.0413 8.664C30.0653 8.728 30.0773 8.8 30.0773 8.88C30.0773 8.952 30.0653 9.004 30.0413 9.036L28.4453 9C27.8373 9 27.2813 9.032 26.7773 9.096C26.7373 9.048 26.7173 8.98 26.7173 8.892L26.7293 8.796C27.1453 8.7 27.4173 8.552 27.5453 8.352C27.6493 8.192 27.7173 7.992 27.7493 7.752C27.8453 7.024 27.8933 6.04 27.8933 4.8C27.8933 2.152 27.8213 0.803998 27.6773 0.755999C27.5253 0.715999 27.2613 0.695999 26.8853 0.695999C26.8533 0.639998 26.8373 0.587998 26.8373 0.539999C26.8373 0.491999 26.8533 0.419999 26.8853 0.323998ZM32.0093 2.88C32.0093 2.288 31.8413 1.784 31.5053 1.368C31.1773 0.951999 30.7373 0.743999 30.1853 0.743999C29.6333 0.743999 29.2493 0.759999 29.0333 0.791999C28.9453 1.144 28.9013 2.472 28.9013 4.776C29.1893 4.8 29.5893 4.812 30.1013 4.812C30.6133 4.812 31.0573 4.636 31.4333 4.284C31.8173 3.932 32.0093 3.464 32.0093 2.88Z" stroke="black" stroke-width="0.4" mask="url(#path-1-outside-1_110:17)"/>
    <path d="M38.7546 9.036L37.3986 9C36.8466 9 36.3826 9.032 36.0066 9.096C35.9586 9.032 35.9346 8.964 35.9346 8.892L35.9586 8.796C36.3746 8.7 36.6506 8.552 36.7866 8.352C36.8906 8.192 36.9586 7.992 36.9906 7.752C37.1346 6.712 37.2266 4.516 37.2666 1.164C37.0666 0.947999 36.8906 0.807999 36.7386 0.743999C36.5866 0.679999 36.3426 0.635998 36.0066 0.611998C35.9826 0.563998 35.9706 0.503999 35.9706 0.431998C35.9706 0.351999 35.9826 0.291999 36.0066 0.251999L37.9746 0.203999C38.2146 0.203999 39.0226 1.028 40.3986 2.676C41.1826 3.604 42.3306 5.084 43.8426 7.116C43.8186 6.492 43.7906 5.38 43.7586 3.78C43.7346 2.172 43.6866 1.156 43.6146 0.731999C43.4386 0.707999 43.1146 0.695999 42.6426 0.695999C42.6106 0.631999 42.5946 0.567999 42.5946 0.503999C42.5946 0.431999 42.6066 0.371999 42.6306 0.323998L43.9866 0.359999C44.5386 0.359999 45.0026 0.327999 45.3786 0.263999C45.4186 0.311998 45.4386 0.379998 45.4386 0.467999L45.4266 0.563999C45.0346 0.651999 44.7746 0.775999 44.6466 0.935998C44.5186 1.096 44.4426 1.32 44.4186 1.608C44.3146 3.272 44.2626 5.796 44.2626 9.18L43.9746 9.3L43.7106 8.964C42.1826 6.948 40.6866 5.036 39.2226 3.228C38.6466 2.524 38.1226 1.956 37.6506 1.524C37.6506 2.604 37.6506 3.888 37.6506 5.376C37.6586 6.864 37.7106 7.948 37.8066 8.628C37.9906 8.652 38.3066 8.664 38.7546 8.664C38.7786 8.728 38.7906 8.792 38.7906 8.856C38.7906 8.92 38.7786 8.98 38.7546 9.036Z" stroke="black" stroke-width="0.4" mask="url(#path-1-outside-1_110:17)"/>
    <path d="M47.3388 0.323998L48.8988 0.359999L50.4348 0.323998C50.4508 0.371999 50.4588 0.431999 50.4588 0.503999L50.4348 0.695999C50.0828 0.695999 49.8148 0.707999 49.6308 0.731999C49.4948 0.747999 49.4268 1.648 49.4268 3.432V5.388C49.4268 6.148 49.4428 6.876 49.4748 7.572C49.5148 8.268 49.5628 8.62 49.6188 8.628C49.8268 8.652 50.1788 8.664 50.6748 8.664C50.6908 8.72 50.6988 8.784 50.6988 8.856C50.6988 8.928 50.6908 8.988 50.6748 9.036L49.1508 9C48.3108 9 47.6228 9.032 47.0868 9.096C47.0468 9.056 47.0268 8.988 47.0268 8.892L47.0388 8.796C47.5588 8.684 47.8788 8.552 47.9988 8.4C48.0708 8.304 48.1188 8.22 48.1428 8.148C48.1668 8.076 48.1868 7.964 48.2028 7.812C48.2988 7.188 48.3468 6.176 48.3468 4.776V3.432C48.3468 1.648 48.2788 0.747999 48.1428 0.731999C47.9588 0.707999 47.6908 0.695999 47.3388 0.695999C47.3228 0.639998 47.3148 0.575999 47.3148 0.503999C47.3148 0.431999 47.3228 0.371999 47.3388 0.323998Z" stroke="black" stroke-width="0.4" mask="url(#path-1-outside-1_110:17)"/>
    <path d="M57.9161 9.036L55.9481 9C55.0841 9 54.3681 9.032 53.8001 9.096C53.7601 9.048 53.7401 8.98 53.7401 8.892L53.7521 8.796C54.3041 8.708 54.6681 8.596 54.8441 8.46C55.0201 8.316 55.1361 8.084 55.1921 7.764C55.3041 7.172 55.3601 6.18 55.3601 4.788C55.3601 3.396 55.3441 2.424 55.3121 1.872C55.2801 1.32 55.2401 0.975999 55.1921 0.839999C54.9921 0.799999 54.7481 0.779998 54.4601 0.779998C53.7881 0.779998 53.2641 0.867999 52.8881 1.044L52.3601 2.364C52.1761 2.364 52.0401 2.332 51.9521 2.268L52.1441 0.407999C52.1441 0.319999 52.2121 0.275998 52.3481 0.275998L54.4601 0.359999H57.4001L59.7041 0.275998C59.8481 0.275998 59.9201 0.319999 59.9201 0.407999C59.7921 1.112 59.7281 1.756 59.7281 2.34C59.6641 2.372 59.5841 2.388 59.4881 2.388C59.3921 2.388 59.3161 2.372 59.2601 2.34C59.1161 1.548 59.0361 1.116 59.0201 1.044C58.6201 0.867999 58.0721 0.779998 57.3761 0.779998C57.0641 0.779998 56.8121 0.799999 56.6201 0.839999C56.5961 0.911999 56.5641 1.244 56.5241 1.836C56.4921 2.428 56.4761 3.188 56.4761 4.116V6.264C56.4761 7.152 56.5401 7.924 56.6681 8.58C57.0361 8.636 57.4521 8.664 57.9161 8.664C57.9401 8.728 57.9521 8.8 57.9521 8.88C57.9521 8.952 57.9401 9.004 57.9161 9.036Z" stroke="black" stroke-width="0.4" mask="url(#path-1-outside-1_110:17)"/>
    <path d="M60.9355 0.251999L62.8795 0.203999C62.9595 0.203999 63.1635 0.423999 63.4915 0.863999C63.8275 1.304 64.2035 1.9 64.6195 2.652C65.0435 3.396 65.3675 4.104 65.5915 4.776C65.7115 4.568 65.8915 4.26 66.1315 3.852C66.3715 3.436 66.5515 3.12 66.6715 2.904C66.7995 2.68 66.9435 2.416 67.1035 2.112C67.3995 1.568 67.5875 1.112 67.6675 0.743999C67.4995 0.711999 67.1755 0.695999 66.6955 0.695999C66.6715 0.639998 66.6595 0.575999 66.6595 0.503999C66.6595 0.431999 66.6715 0.371999 66.6955 0.323998C67.2235 0.347999 67.7315 0.359999 68.2195 0.359999C68.7075 0.359999 69.1355 0.327999 69.5035 0.263999C69.5515 0.343998 69.5755 0.411999 69.5755 0.467999L69.5515 0.563999C69.3355 0.627999 69.0875 0.763999 68.8075 0.971999C68.4475 1.228 67.9115 1.904 67.1995 3C66.4875 4.096 66.0795 4.844 65.9755 5.244C65.9115 5.412 65.8795 5.876 65.8795 6.636C65.8795 7.388 65.9195 8.036 65.9995 8.58C66.3275 8.636 66.7875 8.664 67.3795 8.664C67.4035 8.72 67.4155 8.784 67.4155 8.856L67.3795 9.036L65.4715 9C64.5435 9 63.7755 9.032 63.1675 9.096C63.1275 9.048 63.1075 8.98 63.1075 8.892L63.1195 8.796C63.8875 8.676 64.3555 8.496 64.5235 8.256C64.6915 8.016 64.7755 7.564 64.7755 6.9C64.7755 6.236 64.7195 5.688 64.6075 5.256C64.4955 4.816 64.1675 4.14 63.6235 3.228C63.0875 2.316 62.5995 1.62 62.1595 1.14C61.9835 0.939999 61.8155 0.807999 61.6555 0.743999C61.5035 0.671999 61.2635 0.627999 60.9355 0.611998C60.9115 0.563998 60.8995 0.499999 60.8995 0.419999C60.8995 0.331999 60.9115 0.275999 60.9355 0.251999Z" stroke="black" stroke-width="0.4" mask="url(#path-1-outside-1_110:17)"/>
</svg>

